# xmcd
#
# Track frame offsets:
#	182
#	16880
#	40802
#	52892
#	72562
#	97920
#	113952
#	135582
#	143072
#	160275
#	175557
#	194295
#	214290
#	238752
#	253942
#	270670
#	286102
#	302155
#	312207
#
# Disc length: 4333 seconds
# Revision: 0
# Processed by: cddbd v1.5.2PL0 Copyright (c) Steve Scherf et al.
# Submitted via: dBpowerAMP V12.0
#
DISCID=0f10eb13
DTITLE=Dorival Caymmi - Songbook - Disco 4
DYEAR=1993
DGENRE=Brazil
TTITLE0=João Valentão (Nana Caymmi e Wagner Tiso)
TTITLE1=Dora (Cássia Eller e Marco Pereira)
TTITLE2=A Vizinha Do Lado (Chico Buarque)
TTITLE3=Não Tem Solução (Tim Maia)
TTITLE4=A Lenda Do Abaeté (Edu Lobo)
TTITLE5=Canto De Obá (Alcione)
TTITLE6=Peguei Um Ita No Norte (Fafá de Belém)
TTITLE7=Modinha Para Teresa Batista (Joyce)
TTITLE8=Vamos Falar De Teresa (Amelinha)
TTITLE9=O Que   Que A Baiana Tem? (Margareth Menezes)
TTITLE10=Você  Não Sabe Amar (Nouvelle Cuisine)
TTITLE11=Dois De Fevereiro (Baby Consuelo)
TTITLE12=Dona Chica (Zé Ramalho e Sivuca)
TTITLE13=Canção Da Partida (Moraes Moreira)
TTITLE14=História Pro Sinhozinho (Olívia Byington)
TTITLE15=Adeus (Nelson Gonçalves e Marco Pereira)
TTITLE16=Nem Eu (Miúcha e Chiquito Braga)
TTITLE17=Itapoã Maúcha e Mário Adnet)
TTITLE18=Horas (Nana Caymmi e Cláudio Nucci)
EXTD=
EXTT0=
EXTT1=
EXTT2=
EXTT3=
EXTT4=
EXTT5=
EXTT6=
EXTT7=
EXTT8=
EXTT9=
EXTT10=
EXTT11=
EXTT12=
EXTT13=
EXTT14=
EXTT15=
EXTT16=
EXTT17=
EXTT18=
PLAYORDER=
